<svg width="120" height="120" viewBox="0 0 120 120" fill="none" xmlns="http://www.w3.org/2000/svg">
<g clip-path="url(#clip0_5_86)">
<path d="M120 0H0V120H120V0Z" fill="#AAEAFF" fill-opacity="0.3"/>
<path d="M59.8711 27.7422C52.0659 27.7422 44.6506 30.273 38.5582 34.9428V33.9414C38.5582 32.8002 37.633 31.875 36.4918 31.875C35.3506 31.875 34.4254 32.8002 34.4254 33.9414C34.4254 33.9556 34.4255 39.5106 34.4255 39.4966C34.4273 41.3254 36.6514 42.258 37.9533 40.9553C43.8077 35.0998 51.5914 31.875 59.8711 31.875C76.9623 31.875 90.8672 45.7798 90.8672 62.8711C90.8672 79.9623 76.9623 93.8672 59.8711 93.8672C42.7798 93.8672 28.875 79.9623 28.875 62.8711C28.875 58.1149 29.9231 53.5527 31.9902 49.3116C32.4902 48.2857 32.0639 47.0486 31.0381 46.5487C30.0122 46.0481 28.7751 46.4748 28.2752 47.5008C25.9309 52.3109 24.7422 57.4822 24.7422 62.8711C24.7422 82.2859 40.4536 98 59.8711 98C79.2859 98 95 82.2886 95 62.8711C95 43.4562 79.2886 27.7422 59.8711 27.7422Z" fill="#13182F"/>
<path d="M59.8711 87.668C73.5441 87.668 84.668 76.5441 84.668 62.8711C84.668 49.1981 73.5441 38.0742 59.8711 38.0742C46.1981 38.0742 35.0742 49.1981 35.0742 62.8711C35.0742 76.5441 46.1981 87.668 59.8711 87.668ZM48.2482 69.5231L57.8047 61.878V50.4727C57.8047 49.3314 58.7299 48.4062 59.8711 48.4062C61.0123 48.4062 61.9375 49.3314 61.9375 50.4727V62.8711C61.9375 63.4989 61.6522 64.0925 61.1619 64.4847L50.8299 72.7503C49.9415 73.4614 48.6405 73.3215 47.9255 72.4275C47.2126 71.5364 47.3571 70.236 48.2482 69.5231Z" fill="#0998E6"/>
</g>
<defs>
<clipPath id="clip0_5_86">
<rect width="120" height="120" fill="white"/>
</clipPath>
</defs>
</svg>
