<svg width="120" height="120" viewBox="0 0 120 120" fill="none" xmlns="http://www.w3.org/2000/svg">
<g clip-path="url(#clip0_5_66)">
<path d="M120 0H0V120H120V0Z" fill="#AAEAFF" fill-opacity="0.3"/>
<path d="M73.1412 35.1416H37.543C35.3339 35.1416 33.543 36.9325 33.543 39.1416V86.001C33.543 88.2101 35.3339 90.001 37.543 90.001H73.1412C75.3503 90.001 77.1412 88.2101 77.1412 86.001V39.1416C77.1412 36.9325 75.3503 35.1416 73.1412 35.1416Z" fill="#13182F" stroke="#13182F" stroke-width="2"/>
<path d="M73.1408 35.1416H37.543C35.3339 35.1416 33.543 36.9325 33.543 39.1416V81.6745C33.543 83.8836 35.3339 85.6745 37.543 85.6745H73.1408C75.3499 85.6745 77.1408 83.8836 77.1408 81.6745V39.1416C77.1408 36.9325 75.3499 35.1416 73.1408 35.1416Z" fill="white" stroke="#13182F" stroke-width="2"/>
<path d="M67 47.4502H43.6875" stroke="#13182F" stroke-width="2" stroke-linecap="round"/>
<path d="M67 53.0752H43.6875" stroke="#13182F" stroke-width="2" stroke-linecap="round"/>
<path d="M43.5 33.1435C43.5 32.5138 43.8257 31.9108 44.4029 31.4721C50.4936 26.8426 60.1835 26.8426 66.2741 31.4721C66.8514 31.9108 67.1771 32.5138 67.1771 33.1435V36.8384C67.1771 37.9499 66.0258 38.851 64.6057 38.851H46.0714C44.6513 38.851 43.5 37.9499 43.5 36.8384V33.1435Z" fill="#0998E6"/>
<path d="M88.9651 71.5382C88.5074 66.9514 85.1682 62 80.5708 62C79.1238 62 77.6772 62.4924 76.2385 63.4872C74.3166 64.8397 71.7156 64.8631 69.7293 63.4638C68.3228 62.4924 66.8762 62 65.4292 62C60.8318 62 57.4926 66.9514 57.0349 71.5382C56.775 74.1456 58.0122 76.1143 59.2088 78.0186L59.4809 78.4533C60.6964 80.4061 61.0952 82.5812 61.5173 84.8843C61.6247 85.4711 61.733 86.0613 61.8559 86.654C62.2977 88.7882 63.4722 94.4593 67.5069 95.0135C67.6018 95.0269 67.6954 95.0336 67.787 95.0336C70.1548 95.0336 70.8725 91.3378 71.7039 87.0586C71.8104 86.5094 71.9174 85.9593 72.0274 85.4218C72.1461 84.8441 72.6075 84.6377 73 84.6377C73.3925 84.6377 73.8539 84.8441 73.9726 85.4218C74.0826 85.9585 74.1896 86.5085 74.2961 87.0577C75.1275 91.337 75.8456 95.0327 78.213 95.0336C78.3046 95.0336 78.3982 95.0269 78.4931 95.0135C82.5278 94.4593 83.7023 88.7882 84.1445 86.6531C84.267 86.0613 84.3753 85.4711 84.4827 84.8843C84.9048 82.5812 85.3036 80.4061 86.5186 78.4533L86.7912 78.0186C87.9878 76.1143 89.225 74.1456 88.9651 71.5382ZM65.3987 67.9946C64.6919 68.0799 63.226 69.8438 62.9974 72.1334C62.9531 72.5748 62.5811 72.9042 62.1464 72.9042C62.118 72.9042 62.0895 72.9025 62.0607 72.9C61.5901 72.8532 61.2469 72.4336 61.2937 71.9629C61.5738 69.1608 63.3957 66.5116 65.193 66.2943C65.6699 66.2375 66.0892 66.5718 66.1456 67.0416C66.2024 67.5114 65.8681 67.9378 65.3987 67.9946Z" fill="#0998E6"/>
</g>
<defs>
<clipPath id="clip0_5_66">
<rect width="120" height="120" fill="white"/>
</clipPath>
</defs>
</svg>
