<svg xmlns="http://www.w3.org/2000/svg" version="1.1" xmlns:xlink="http://www.w3.org/1999/xlink" width="512" height="512" x="0" y="0" viewBox="0 0 128 128" style="enable-background:new 0 0 512 512" xml:space="preserve" class=""><g><path d="M46.87 57.141a1.49 1.49 0 0 0 .583-.119 7.846 7.846 0 0 1 3.065-.583h.226a1.5 1.5 0 0 0 .067-3h-.293a10.81 10.81 0 0 0-4.233.82 1.5 1.5 0 0 0 .585 2.882zM54.174 57.108a11.774 11.774 0 0 1 3.1 1.694 1.5 1.5 0 0 0 1.816-2.389 14.764 14.764 0 0 0-3.89-2.123 1.5 1.5 0 1 0-1.027 2.818zM59.706 61.332a10.3 10.3 0 0 1 1.458 3.154 1.5 1.5 0 0 0 1.447 1.114 1.522 1.522 0 0 0 .389-.057 1.5 1.5 0 0 0 1.057-1.84 13.294 13.294 0 0 0-1.883-4.07 1.5 1.5 0 1 0-2.472 1.7zM42 63.4a1.5 1.5 0 0 0 1.726-1.232l.027-.158a7.179 7.179 0 0 1 1.223-3.043 1.5 1.5 0 0 0-2.423-1.767 10.127 10.127 0 0 0-1.753 4.288l-.031.183A1.5 1.5 0 0 0 42 63.4zM61.507 82.015a4.87 4.87 0 0 1-1.63.411q-.83.069-1.7.11a1.5 1.5 0 0 0 .071 3h.072q.922-.043 1.807-.116a7.917 7.917 0 0 0 2.694-.7 1.5 1.5 0 1 0-1.313-2.7z" fill="#ffffff" opacity="1" data-original="#000000" class=""></path><path d="M121.336 56.608c-1.5-2.557-4.373-3.7-7.692-3.073a12.575 12.575 0 0 0-7.829 5.337 11.773 11.773 0 0 0-.815-2.091c-1.453-2.762-5.135-3.967-9.382-3.066a14.359 14.359 0 0 0-8.913 5.915 9.269 9.269 0 0 0-8.865-6.186c-5.545-.13-12.339 3.532-14.014 10.7-1.707 7.3-1.693 16.231-.543 18.753.94 2.061 3.751 2.448 4.589 2.517 1.445.119 2.975.178 4.528.178a57.959 57.959 0 0 0 10.452-.908 5.711 5.711 0 0 0 3.623-2.244 10.645 10.645 0 0 0 3.531.774 22.94 22.94 0 0 0 1.709.059c4.544 0 11.335-1.105 13.838-3.718a8.234 8.234 0 0 0 2.441.516c.363.029.759.043 1.182.043 4.3 0 11.286-1.475 12.543-4.5 1.001-2.403 2.114-14.737-.383-19.006zM84.708 78.749a2.954 2.954 0 0 1-2.416 2.989 56.189 56.189 0 0 1-14.169.688 3.151 3.151 0 0 1-2.107-.772c-.743-1.629-.94-9.664.734-16.825a11.27 11.27 0 0 1 10.736-8.39h.269a6.373 6.373 0 0 1 6.491 5.564c1.105 6.407.633 14.437.462 16.746zm18.838-1.449c-.282.655-2.6 1.888-6.866 2.576-4.776.772-8.142.328-9.081-.2.039-.232.084-.461.1-.7a92.648 92.648 0 0 0 .02-13.222.722.722 0 0 1 0-.093c.395-5.052 4.55-8.163 8.522-9.006 2.853-.605 5.306.009 6.105 1.529 2.128 4.038 2.213 16.76 1.2 19.116zm15.406-2.833c-.145.348-1.442 1.3-4.528 2.025-3.7.867-6.687.7-7.67.33a49.4 49.4 0 0 0 .085-12.458.543.543 0 0 1 0-.156 9.7 9.7 0 0 1 7.362-7.721c.967-.188 3.35-.394 4.541 1.64 1.773 3.019 1.083 14.232.21 16.335z" fill="#ffffff" opacity="1" data-original="#000000" class=""></path><path d="M121.3 65.129a1.5 1.5 0 0 1-1.292-2.26c5.325-9.06 5.132-20.341-.451-26.238-6.505-6.874-29.576-2.865-47.224 4.788a21.017 21.017 0 0 1-16.674 0c-17.648-7.654-40.719-11.66-47.224-4.788-5.583 5.9-5.776 17.178-.451 26.238a1.5 1.5 0 0 1-2.584 1.52c-6.073-10.335-5.712-22.876.86-29.821 8.723-9.216 35.664-2.379 50.6 4.1a18.014 18.014 0 0 0 14.288 0c14.931-6.479 41.871-13.317 50.6-4.1 6.572 6.945 6.933 19.486.858 29.821a1.5 1.5 0 0 1-1.306.74zM91.027 106.371a2.239 2.239 0 0 1-1.967-1.168l-1.392-2.545a4.242 4.242 0 0 0-1.692-1.691l-2.546-1.393a2.242 2.242 0 0 1 0-3.936l2.545-1.393a4.24 4.24 0 0 0 1.691-1.691l1.393-2.546a2.241 2.241 0 0 1 1.967-1.167A2.243 2.243 0 0 1 93 90.008l1.393 2.546a4.24 4.24 0 0 0 1.691 1.691l2.546 1.393a2.242 2.242 0 0 1 0 3.935l-2.546 1.394a4.234 4.234 0 0 0-1.691 1.691L93 105.2a2.243 2.243 0 0 1-1.973 1.171zm-4.944-8.766 1.332.729a7.246 7.246 0 0 1 2.884 2.885l.728 1.332.729-1.332a7.233 7.233 0 0 1 2.884-2.885l1.331-.728-1.331-.728a7.242 7.242 0 0 1-2.885-2.885l-.728-1.332-.727 1.332a7.237 7.237 0 0 1-2.883 2.885z" fill="#ffffff" opacity="1" data-original="#000000" class=""></path><path d="M77.226 30.2a2.019 2.019 0 0 1-1.771-1.049l-.972-1.778a2.517 2.517 0 0 0-1-1l-1.777-.973a2.018 2.018 0 0 1 0-3.543l1.775-.971a2.515 2.515 0 0 0 1-1l.972-1.779A2.02 2.02 0 0 1 79 18.1l.972 1.779a2.512 2.512 0 0 0 1 1l1.779.973a2.018 2.018 0 0 1 0 3.54l-1.779.974a2.521 2.521 0 0 0-1 1L79 29.147a2.017 2.017 0 0 1-1.774 1.053zm-2.507-6.57.2.11a5.518 5.518 0 0 1 2.193 2.194l.111.2.111-.2a5.513 5.513 0 0 1 2.192-2.193l.2-.111-.2-.112a5.493 5.493 0 0 1-2.193-2.194l-.111-.2-.111.2a5.5 5.5 0 0 1-2.194 2.194zM18.792 97.956a2.016 2.016 0 0 1-1.771-1.056l-.972-1.775a2.5 2.5 0 0 0-1-1l-1.778-.974a2.018 2.018 0 0 1 0-3.54l1.779-.973a2.528 2.528 0 0 0 1-1l.972-1.778a2.019 2.019 0 0 1 3.542 0l.972 1.779a2.536 2.536 0 0 0 1 1l1.777.97a2.019 2.019 0 0 1 0 3.543l-1.776.972a2.5 2.5 0 0 0-1 1l-.973 1.777a2.017 2.017 0 0 1-1.772 1.055zm-2.507-6.571.2.112a5.5 5.5 0 0 1 2.193 2.193l.111.2.111-.2a5.505 5.505 0 0 1 2.2-2.19l.2-.111-.2-.111a5.5 5.5 0 0 1-2.2-2.197l-.111-.2-.111.2a5.494 5.494 0 0 1-2.193 2.192z" fill="#ffffff" opacity="1" data-original="#000000" class=""></path><path d="M54.718 77.026a15.65 15.65 0 0 0-11.5-11.481 1.489 1.489 0 0 0-2.713-.46 14.111 14.111 0 0 0-1.49-.045 10.394 10.394 0 0 0-10.425 8.97c-.284 1.646-.476 3.377-.609 5.107-2.134-.636-3.331-1.367-3.527-1.822-1.013-2.351-.928-15.073 1.2-19.117.579-1.1 2.018-1.741 3.949-1.756h.063a11.384 11.384 0 0 1 9.53 5.517 1.5 1.5 0 1 0 2.632-1.439 14.355 14.355 0 0 0-12.168-7.078h-.082c-3.072.023-5.471 1.248-6.581 3.359a11.773 11.773 0 0 0-.812 2.091 12.575 12.575 0 0 0-7.829-5.337c-3.322-.636-6.2.516-7.692 3.073-2.5 4.269-1.384 16.6-.386 19 1.257 3.029 8.243 4.5 12.543 4.5.422 0 .819-.014 1.182-.043a8.193 8.193 0 0 0 2.454-.522 11.827 11.827 0 0 0 5.351 2.64 110.837 110.837 0 0 0 .219 11.6 6.485 6.485 0 0 0 5.335 6.3 65.488 65.488 0 0 0 11.82 1.026c1.757 0 3.489-.066 5.124-.2.924-.076 4.019-.5 5.04-2.739 1.293-2.826 1.3-12.893-.628-21.144zm-41.142-.539c-3.086-.724-4.383-1.677-4.528-2.025-.873-2.1-1.563-13.316.205-16.34 1.189-2.035 3.572-1.828 4.541-1.64a9.7 9.7 0 0 1 7.362 7.718.543.543 0 0 1 .005.156 49.406 49.406 0 0 0 .085 12.459c-.983.368-3.974.54-7.67-.328zm39.041 20.446a3.621 3.621 0 0 1-2.559.993 64.164 64.164 0 0 1-16.133-.782 3.542 3.542 0 0 1-2.9-3.577c-.2-2.625-.731-11.756.526-19.047a7.424 7.424 0 0 1 7.56-6.482c5.1-.126 11.231 3.428 12.691 9.672 1.904 8.166 1.668 17.352.815 19.223z" fill="#ffffff" opacity="1" data-original="#000000" class=""></path></g></svg>