<svg width="265" height="265" viewBox="0 0 265 265" fill="none" xmlns="http://www.w3.org/2000/svg">
<g clip-path="url(#clip0_6_18)">
<path d="M264.741 77.9107C264.12 63.8303 261.843 54.1501 258.581 45.762C255.216 36.8584 250.04 28.8869 243.257 22.2602C236.63 15.5304 228.606 10.301 219.806 6.98867C211.369 3.72689 201.74 1.44991 187.659 0.829095C173.474 0.155708 168.97 0 132.991 0C97.0127 0 92.5093 0.155708 78.3763 0.776519C64.2958 1.39733 54.6156 3.67633 46.2296 6.93609C37.3239 10.301 29.3525 15.4778 22.7258 22.2602C15.996 28.8869 10.7686 36.9109 7.45425 45.7115C4.19246 54.1501 1.91548 63.7777 1.29467 77.8582C0.621284 92.0438 0.465576 96.5472 0.465576 132.526C0.465576 168.505 0.621284 173.008 1.24209 187.141C1.86291 201.222 4.14191 210.902 7.40369 219.29C10.7686 228.193 15.996 236.165 22.7258 242.792C29.3525 249.521 37.3765 254.751 46.1771 258.063C54.6156 261.325 64.2433 263.602 78.3257 264.223C92.4568 264.846 96.9622 264.999 132.941 264.999C168.92 264.999 173.423 264.846 187.556 264.223C201.637 263.602 211.317 261.325 219.703 258.063C237.512 251.178 251.593 237.097 258.478 219.29C261.738 210.851 264.017 201.222 264.638 187.141C265.258 173.008 265.414 168.505 265.414 132.526C265.414 96.5472 265.362 92.0438 264.741 77.9107ZM240.877 186.106C240.307 199.048 238.133 206.036 236.321 210.695C231.868 222.24 222.706 231.403 211.161 235.855C206.502 237.667 199.463 239.841 186.571 240.409C172.594 241.032 168.402 241.186 133.044 241.186C97.6861 241.186 93.4416 241.032 79.5148 240.409C66.5728 239.841 59.5841 237.667 54.925 235.855C49.18 233.732 43.9506 230.367 39.7061 225.967C35.3058 221.67 31.9409 216.493 29.8176 210.748C28.0057 206.089 25.8319 199.048 25.2636 186.158C24.6408 172.181 24.4871 167.987 24.4871 132.629C24.4871 97.2711 24.6408 93.0266 25.2636 79.1018C25.8319 66.1598 28.0057 59.1711 29.8176 54.512C31.9409 48.765 35.3058 43.5376 39.7586 39.291C44.0538 34.8908 49.2306 31.5259 54.9776 29.4046C59.6367 27.5927 66.678 25.4189 79.5674 24.8486C93.5447 24.2278 97.7387 24.0721 133.095 24.0721C168.505 24.0721 172.697 24.2278 186.624 24.8486C199.566 25.4189 206.554 27.5927 211.214 29.4046C216.959 31.5259 222.188 34.8908 226.433 39.291C230.833 43.5882 234.198 48.765 236.321 54.512C238.133 59.1711 240.307 66.2104 240.877 79.1018C241.498 93.0791 241.654 97.2711 241.654 132.629C241.654 167.987 241.498 172.128 240.877 186.106Z" fill="#21365E"/>
<path d="M132.991 64.4512C95.409 64.4512 64.9165 94.9417 64.9165 132.526C64.9165 170.11 95.409 200.601 132.991 200.601C170.576 200.601 201.066 170.11 201.066 132.526C201.066 94.9417 170.576 64.4512 132.991 64.4512ZM132.991 176.684C108.61 176.684 88.8329 156.909 88.8329 132.526C88.8329 108.142 108.61 88.3675 132.991 88.3675C157.375 88.3675 177.15 108.142 177.15 132.526C177.15 156.909 157.375 176.684 132.991 176.684Z" fill="#21365E"/>
<path d="M219.652 61.7595C219.652 70.5358 212.536 77.6519 203.758 77.6519C194.982 77.6519 187.865 70.5358 187.865 61.7595C187.865 52.9812 194.982 45.8672 203.758 45.8672C212.536 45.8672 219.652 52.9812 219.652 61.7595Z" fill="#21365E"/>
</g>
<defs>
<clipPath id="clip0_6_18">
<rect width="265" height="265" fill="white"/>
</clipPath>
</defs>
</svg>
