<svg width="265" height="265" viewBox="0 0 265 265" fill="none" xmlns="http://www.w3.org/2000/svg">
<g clip-path="url(#clip0_6_16)">
<path d="M265 50.3334C255.145 54.6563 244.645 57.5216 233.697 58.9128C244.959 52.1884 253.555 41.6216 257.597 28.885C247.096 35.1456 235.502 39.5678 223.147 42.0356C213.176 31.4191 198.965 24.8438 183.463 24.8438C153.385 24.8438 129.171 49.2569 129.171 79.1853C129.171 83.4916 129.535 87.6322 130.43 91.5741C85.2638 89.3712 45.2984 67.7241 18.4506 34.7481C13.7634 42.8803 11.0141 52.1884 11.0141 62.2088C11.0141 81.0238 20.7031 97.7022 35.1456 107.358C26.4172 107.192 17.8544 104.658 10.6 100.667C10.6 100.833 10.6 101.048 10.6 101.263C10.6 127.664 29.4316 149.592 54.1262 154.644C49.7041 155.853 44.8844 156.433 39.8825 156.433C36.4044 156.433 32.8931 156.234 29.5972 155.505C36.6362 177.02 56.6106 192.837 80.3613 193.351C61.8775 207.81 38.4084 216.522 13.0016 216.522C8.54625 216.522 4.27312 216.323 0 215.776C24.0653 231.295 52.5859 240.156 83.3425 240.156C183.314 240.156 237.97 157.344 237.97 85.5619C237.97 83.1603 237.887 80.8416 237.771 78.5394C248.553 70.8875 257.613 61.3309 265 50.3334Z" fill="#21365E"/>
</g>
<defs>
<clipPath id="clip0_6_16">
<rect width="265" height="265" fill="white"/>
</clipPath>
</defs>
</svg>
