<svg xmlns="http://www.w3.org/2000/svg" version="1.1" xmlns:xlink="http://www.w3.org/1999/xlink" width="512" height="512" x="0" y="0" viewBox="0 0 512 512.002" style="enable-background:new 0 0 512 512" xml:space="preserve" class=""><g><path d="M351.238 52.453a7.5 7.5 0 1 0-13.313 6.914c9.786 18.836 11.84 40.485 5.786 60.953-2.414 8.18-23.621 80.008-24.547 83.575-.184.71-.82 1.21-1.543 1.21H140.63a7.497 7.497 0 0 0-7.5 7.5 7.5 7.5 0 0 0 7.5 7.5h154.234l-4.168 22.918a1.591 1.591 0 0 1-1.566 1.305H73.027c-.77 0-1.425-.547-1.562-1.305l-4.172-22.918h40.676a7.5 7.5 0 1 0 0-15H44.535c-.722 0-1.36-.496-1.543-1.207-.02-.078-.043-.156-.062-.234L18.445 120.32c-7.41-25.062-2.691-51.441 12.95-72.379C47.035 27.008 70.992 15 97.125 15a82.185 82.185 0 0 1 22.863 3.227 219.3 219.3 0 0 0 122.18 0A82.185 82.185 0 0 1 265.031 15c20.106 0 39.399 7.297 54.332 20.547a7.502 7.502 0 0 0 10.59-.629 7.502 7.502 0 0 0-.633-10.59C311.64 8.641 288.81 0 265.031 0a97.261 97.261 0 0 0-27.035 3.816 204.298 204.298 0 0 1-113.836 0A97.261 97.261 0 0 0 97.125 0c-30.91 0-59.25 14.203-77.75 38.965C.875 63.727-4.707 94.93 4.059 124.559l24.449 83.234a16.598 16.598 0 0 0 16.027 12.312h7.512l4.66 25.602a16.579 16.579 0 0 0 16.32 13.621h32.684l5.297 45.625-5.285 1.414a21.043 21.043 0 0 0-12.868 9.875 21.041 21.041 0 0 0-2.117 16.078c2.535 9.457 11.117 15.707 20.473 15.707a21.25 21.25 0 0 0 4.742-.55l2.695 23.207-7.148 1.918c-11.285 3.023-18.008 14.664-14.984 25.953 2.535 9.453 11.117 15.707 20.472 15.707 1.813 0 3.649-.235 5.48-.727l1.122-.3 2.695 23.183-6.12 1.64c-5.47 1.465-10.036 4.973-12.868 9.876a21.055 21.055 0 0 0-2.113 16.078c1.46 5.465 4.968 10.035 9.87 12.867a21.083 21.083 0 0 0 10.56 2.848c1.84 0 3.695-.243 5.519-.73l.097-.028 2.043 17.582c1.02 8.808 8.48 15.453 17.352 15.453h60.91c8.867 0 16.328-6.645 17.352-15.453l5.246-45.153 7.863-2.109c11.281-3.023 18.004-14.664 14.98-25.95-2.288-8.538-9.511-14.456-17.78-15.527l3.066-26.375 8.398-2.25c11.281-3.019 18.004-14.664 14.98-25.949-2.335-8.718-9.808-14.707-18.292-15.59l3.043-26.168 6.043-1.617c11.289-3.027 18.007-14.668 14.984-25.953-2.129-7.941-8.523-13.613-16.059-15.23l1.09-9.348h32.68c8.023 0 14.887-5.73 16.324-13.621l4.66-25.606h7.508c7.559 0 14.164-5.117 16.063-12.44.66-2.548 14.96-51.087 24.414-83.09 7.156-24.208 4.722-49.821-6.86-72.122zM213.984 494.816a2.467 2.467 0 0 1-2.449 2.184h-60.914a2.467 2.467 0 0 1-2.45-2.184l-2.296-19.773 72.672-19.473zm28.5-67.597c.887 3.297-1.078 6.695-4.375 7.582L127.25 464.504a6.146 6.146 0 0 1-4.695-.617 6.135 6.135 0 0 1-2.883-3.758 6.129 6.129 0 0 1 .617-4.695 6.154 6.154 0 0 1 3.758-2.887l110.86-29.703a6.19 6.19 0 0 1 7.578 4.375zm-18.68-16.93-82.874 22.207-2.692-23.187 88.434-23.696zm27.348-53.172a6.2 6.2 0 0 1-4.379 7.582l-128.187 34.348a6.194 6.194 0 0 1-7.582-4.375c-.883-3.297 1.082-6.695 4.379-7.582l128.187-34.348a6.14 6.14 0 0 1 1.602-.21c2.734 0 5.242 1.823 5.98 4.585zm5.778-69.328a6.2 6.2 0 0 1-4.38 7.582l-45.827 12.281a7.495 7.495 0 0 0-5.301 9.184c1.07 4 5.18 6.375 9.183 5.305l24.196-6.485-2.867 24.676-98.641 26.43-2.691-23.184 48.43-12.976a7.503 7.503 0 0 0 5.304-9.188c-1.07-4-5.184-6.375-9.188-5.305l-62.34 16.707c-3.296.883-6.695-1.082-7.581-4.378a6.152 6.152 0 0 1 .62-4.696 6.138 6.138 0 0 1 3.758-2.883l139.743-37.445c3.297-.887 6.699 1.082 7.582 4.375zm-16.868-17.418-114.406 30.656-4.844-41.699h120.536zm0 0" fill="#ffffff" opacity="1" data-original="#000000" class=""></path><path d="M237.996 43.816a204.298 204.298 0 0 1-113.836 0c-3.976-1.148-8.14 1.141-9.289 5.121a7.498 7.498 0 0 0 5.117 9.29c19.98 5.789 40.535 8.683 61.09 8.683s41.11-2.894 61.09-8.683a7.5 7.5 0 1 0-4.172-14.41zm0 0" fill="#ffffff" opacity="1" data-original="#000000" class=""></path></g></svg>