<svg width="120" height="120" viewBox="0 0 120 120" fill="none" xmlns="http://www.w3.org/2000/svg">
<g clip-path="url(#clip0_5_96)">
<path d="M120 0H0V120H120V0Z" fill="#AAEAFF" fill-opacity="0.3"/>
<path d="M42.9757 68.5666C44.9017 72.544 48.1181 75.7519 52.1003 77.6677C52.3941 77.8068 52.719 77.8669 53.043 77.8423C53.3671 77.8177 53.6791 77.7091 53.9485 77.5273L59.7977 73.6201C60.056 73.4449 60.3546 73.338 60.6655 73.3093C60.9765 73.2807 61.2895 73.3312 61.5757 73.4563L72.525 78.159C72.8992 78.3147 73.2118 78.5892 73.4148 78.94C73.6177 79.291 73.6997 79.6989 73.6481 80.1009C73.301 82.8096 71.9788 85.299 69.9291 87.1032C67.8793 88.9075 65.2423 89.9032 62.5116 89.9038C54.0727 89.9038 45.9795 86.5515 40.0123 80.5843C34.0452 74.6172 30.6929 66.5239 30.6929 58.0852C30.6935 55.3543 31.6891 52.7173 33.4935 50.6676C35.2977 48.6178 37.7871 47.2957 40.4958 46.9486C40.8978 46.897 41.3056 46.9789 41.6566 47.1819C42.0075 47.3848 42.282 47.6974 42.4377 48.0717L47.1404 59.0445C47.2626 59.326 47.3137 59.6332 47.2893 59.9392C47.2648 60.2452 47.1654 60.5406 46.9999 60.7992L43.0927 66.7417C42.9189 67.0105 42.8167 67.3194 42.7962 67.6389C42.7758 67.9584 42.8376 68.2779 42.9757 68.5666Z" fill="white" stroke="#13182F" stroke-width="2" stroke-linecap="round" stroke-linejoin="round"/>
<path d="M54.44 58.8682C52.0194 54.7845 51.1728 49.9576 52.0589 45.2938C52.9451 40.63 55.503 36.4501 59.2526 33.5386C63.0023 30.6273 67.6856 29.1846 72.4235 29.4816C77.1614 29.7784 81.6281 31.7946 84.9848 35.1513C88.3416 38.5081 90.3576 42.9747 90.6546 47.7126C90.9515 52.4505 89.5089 57.1339 86.5974 60.8835C83.6861 64.6332 79.506 67.1911 74.8424 68.0772C70.1786 68.9634 65.3517 68.1166 61.268 65.6962L54.5213 67.6063C54.2448 67.6872 53.9517 67.6923 53.6727 67.6209C53.3937 67.5495 53.139 67.4044 52.9353 67.2007C52.7318 66.997 52.5866 66.7425 52.5153 66.4635C52.4439 66.1843 52.4489 65.8914 52.5297 65.6149L54.44 58.8682Z" fill="#0998E6"/>
<path d="M71.2247 51.3494C72.5715 51.3494 73.6632 50.2575 73.6632 48.9108C73.6632 47.564 72.5715 46.4721 71.2247 46.4721C69.878 46.4721 68.7861 47.564 68.7861 48.9108C68.7861 50.2575 69.878 51.3494 71.2247 51.3494Z" fill="white"/>
<path d="M61.4703 51.3494C62.8172 51.3494 63.9088 50.2575 63.9088 48.9108C63.9088 47.564 62.8172 46.4721 61.4703 46.4721C60.1235 46.4721 59.0317 47.564 59.0317 48.9108C59.0317 50.2575 60.1235 51.3494 61.4703 51.3494Z" fill="white"/>
<path d="M80.9792 51.3494C82.3259 51.3494 83.4177 50.2575 83.4177 48.9108C83.4177 47.564 82.3259 46.4721 80.9792 46.4721C79.6323 46.4721 78.5406 47.564 78.5406 48.9108C78.5406 50.2575 79.6323 51.3494 80.9792 51.3494Z" fill="white"/>
</g>
<defs>
<clipPath id="clip0_5_96">
<rect width="120" height="120" fill="white"/>
</clipPath>
</defs>
</svg>
