<svg xmlns="http://www.w3.org/2000/svg" version="1.1" xmlns:xlink="http://www.w3.org/1999/xlink" width="512" height="512" x="0" y="0" viewBox="0 0 480.034 480.034" style="enable-background:new 0 0 512 512" xml:space="preserve"><g><path d="M79.883 38.653a8 8 0 0 0-6.554-6.554A30.945 30.945 0 0 1 47.905 6.667a8 8 0 0 0-15.776 0A30.944 30.944 0 0 1 6.705 32.099a8 8 0 0 0 0 15.776 30.945 30.945 0 0 1 25.424 25.432 8 8 0 0 0 15.776 0 30.945 30.945 0 0 1 25.424-25.432 8 8 0 0 0 6.554-9.222zM40.017 51.411a46.958 46.958 0 0 0-11.424-11.424 46.958 46.958 0 0 0 11.424-11.424 46.958 46.958 0 0 0 11.424 11.424 46.958 46.958 0 0 0-11.424 11.424zM317.825 47.979a114.19 114.19 0 0 0-45.008 9.24 83.691 83.691 0 0 1-65.6 0c-57.968-24.853-125.107 1.992-149.96 59.96a114.208 114.208 0 0 0-9.24 45.008 251.076 251.076 0 0 0 38.208 133.224l2.288 3.672 34.544 152c4.543 20.018 24.454 32.563 44.472 28.02a37.167 37.167 0 0 0 28.44-30.156l24-143.952c1.857-11.077 12.342-18.55 23.419-16.693a20.336 20.336 0 0 1 16.693 16.693l24 143.944c3.378 20.252 22.533 33.931 42.785 30.554a37.176 37.176 0 0 0 30.135-28.426l34.536-152 2.288-3.672a251.07 251.07 0 0 0 38.192-133.208c.004-63.071-51.122-114.203-114.192-114.208zm62.416 238.96-3.008 4.8a8.325 8.325 0 0 0-1.024 2.464l-34.824 153.296c-2.593 11.404-13.94 18.547-25.344 15.954a21.175 21.175 0 0 1-16.192-17.162l-24-143.944c-3.304-19.789-22.025-33.154-41.815-29.849a36.327 36.327 0 0 0-29.849 29.849l-24 143.952c-1.911 11.533-12.811 19.334-24.344 17.422a21.167 21.167 0 0 1-17.184-16.206l-34.832-153.304a8.325 8.325 0 0 0-1.024-2.464l-3.008-4.8a235.196 235.196 0 0 1-35.776-124.76c.062-54.209 43.991-98.138 98.2-98.2a97.76 97.76 0 0 1 38.688 7.936 99.667 99.667 0 0 0 78.224 0c49.855-21.362 107.588 1.735 128.95 51.59a98.204 98.204 0 0 1 7.938 38.674 235.204 235.204 0 0 1-35.776 124.752z" fill="#ffffff" opacity="1" data-original="#000000"></path><path d="m136.017 103.987-1.6-7.84c-16 3.208-46.4 20.68-46.4 63.84h16c0-40.568 32.24-47.872 33.6-48.168l-1.6-7.832zM152.017 95.987h16v16h-16zM479.883 374.653a8 8 0 0 0-6.554-6.554 30.945 30.945 0 0 1-25.424-25.432 8 8 0 0 0-15.776 0 30.945 30.945 0 0 1-25.424 25.432 8 8 0 0 0 0 15.776 30.945 30.945 0 0 1 25.424 25.432 8 8 0 0 0 15.776 0 30.945 30.945 0 0 1 25.424-25.432 8 8 0 0 0 6.554-9.222zm-39.866 12.758a46.958 46.958 0 0 0-11.424-11.424 46.958 46.958 0 0 0 11.424-11.424 46.958 46.958 0 0 0 11.424 11.424 46.958 46.958 0 0 0-11.424 11.424z" fill="#ffffff" opacity="1" data-original="#000000"></path></g></svg>