<svg width="465" height="464" viewBox="0 0 465 464" fill="none" xmlns="http://www.w3.org/2000/svg">
<path d="M463.8 344.88C462.443 339.754 460.026 334.969 456.705 330.835C453.384 326.702 449.233 323.31 444.52 320.88L345.56 269.6C337.575 265.366 328.334 264.144 319.522 266.156C310.711 268.168 302.916 273.28 297.56 280.56L281.56 302.48C280.738 303.619 279.528 304.419 278.158 304.728C276.788 305.037 275.352 304.835 274.12 304.16C250.59 290.77 229.048 274.156 210.12 254.8C190.765 235.871 174.151 214.329 160.76 190.8C160.085 189.568 159.883 188.132 160.192 186.762C160.501 185.392 161.301 184.182 162.44 183.36L184.28 167.36C191.56 162.004 196.672 154.209 198.684 145.398C200.696 136.586 199.474 127.345 195.24 119.36L144.28 20.48C141.833 15.7606 138.418 11.6098 134.26 8.2981C130.101 4.98643 125.291 2.58825 120.143 1.25984C114.996 -0.068581 109.626 -0.297414 104.384 0.588248C99.1419 1.47391 94.1454 3.45419 89.72 6.40003L27.56 48C18.8317 53.8117 11.7838 61.8149 7.12238 71.208C2.46095 80.601 0.349644 91.0541 0.999971 101.52C1.82267 119.215 4.20525 136.804 8.11997 154.08C25 219.2 65.72 286.16 122.28 342.8C178.84 399.44 245.88 440 311 456.72C328.277 460.634 345.865 463.016 363.56 463.84H367.56C377.323 463.819 386.932 461.409 395.549 456.821C404.167 452.234 411.531 445.607 417 437.52L458.44 375.36C461.431 370.944 463.455 365.946 464.378 360.693C465.302 355.44 465.105 350.051 463.8 344.88ZM431.8 357.52L390.6 419.76C387.865 423.797 384.124 427.05 379.746 429.196C375.368 431.343 370.506 432.31 365.64 432C349.947 431.275 334.343 429.214 319 425.84C259.32 410.32 197.56 372.8 145 320C92.44 267.2 54.76 205.68 39.24 146C35.8376 130.659 33.75 115.056 33 99.36C32.6803 94.504 33.6429 89.6492 35.7911 85.2824C37.9394 80.9156 41.1979 77.1903 45.24 74.48L107.4 33.04C108.346 32.4065 109.461 32.072 110.6 32.08H112.12C112.908 32.2854 113.643 32.6553 114.277 33.1655C114.912 33.6757 115.431 34.3146 115.8 35.04L167 134C167.636 135.227 167.817 136.64 167.509 137.988C167.201 139.336 166.426 140.531 165.32 141.36L143.48 157.36C136.074 162.87 130.943 170.902 129.056 179.937C127.169 188.973 128.658 198.387 133.24 206.4C148.047 232.282 166.353 255.999 187.64 276.88C208.519 298.169 232.236 316.475 258.12 331.28C266.133 335.862 275.547 337.351 284.583 335.464C293.618 333.577 301.65 328.446 307.16 321.04L323.16 299.12C323.989 298.014 325.184 297.239 326.532 296.931C327.88 296.623 329.293 296.804 330.52 297.44L429.48 348.64C430.204 349.019 430.841 349.546 431.349 350.187C431.857 350.828 432.224 351.568 432.428 352.36C432.631 353.152 432.666 353.977 432.531 354.784C432.395 355.59 432.092 356.359 431.64 357.04L431.8 357.52Z" fill="#0998E6"/>
</svg>
